<?xml version="1.0" encoding="utf-8"?>
<!-- Generator: Adobe Illustrator 15.0.2, SVG Export Plug-In . SVG Version: 6.00 Build 0)  -->
<!DOCTYPE svg PUBLIC "-//W3C//DTD SVG 1.1//EN" "http://www.w3.org/Graphics/SVG/1.1/DTD/svg11.dtd">
<svg version="1.1" id="Layer_1" xmlns="http://www.w3.org/2000/svg" xmlns:xlink="http://www.w3.org/1999/xlink" x="211px" y="308.75px"
   width="184px" height="164.375px" viewBox="211 308.75 191 177" enable-background="new 0 0 612 792" xml:space="preserve">
<g>
  <image overflow="visible" width="2134" height="1970" xlink:href="C4B94475.png"  transform="matrix(0.12 0 0 0.12 180.5 280.25)">
  </image>
</g>
<g>
	<polygon fill="#373754" points="395,401 348.5,379.573 346.725,391.877 250.203,381.999 264.133,335.25 271.5,335.25 269,308.75
		250.5,335.25 257.75,335.25 243.67,381.331 226.5,379.573 224.5,386 241.64,387.975 222,452.25 228.75,454 248.198,388.73
		345.561,399.949 343.75,412.5 	"/>
	<path fill="#373754" d="M311.875,425c7.625,0,12.5,6,12.5,6l5-5.75c0,0-6.625-7.75-15.875-7.75s-25.875,5.875-25.875,27.5
		s12.75,28.125,24.75,28.125c6.75,0,12-2.375,12-2.375l3.75-25.125l-15-3.25l-1,7.375l6.75,1.125l-1.625,12.25
		c0,0-3.5,1.75-5.5,1.75c-9,0-16.375-7.375-16.375-19.563S304.25,425,311.875,425z"/>
</g>
<path fill="#7F0000" d="M214,436.5l-3,8.334c0,0,5,1.666,11.167,1.666c18.667,0,37.088-10,53.294-36s24.041-49,34.54-64.333
	s25.333-27,46.666-27c0-4.5,0-6.5,0-6.5s-33.333-1.833-52.5,29s-30.834,66.167-49.5,82.5S221.333,437.833,214,436.5z"/>
<path fill="#267F00" fill-opacity="1" d="M219.25,422.75c0,0,43.75-91.25,81.25-91.25c20.25,0,30.25,44.25,26.5,79.25c7.25,0.25,9.75,0.25,9.75,0.25
	s4.75-85.75-35.75-85.75s-87,94-87,94L219.25,422.75z"/>
</svg>
